<?xml version="1.0" standalone="no"?>
<!DOCTYPE svg PUBLIC "-//W3C//DTD SVG 20010904//EN"
 "http://www.w3.org/TR/2001/REC-SVG-20010904/DTD/svg10.dtd">
<svg version="1.0" xmlns="http://www.w3.org/2000/svg"
 width="1280.000000pt" height="1280.000000pt" viewBox="0 0 1280.000000 1280.000000"
 preserveAspectRatio="xMidYMid meet">
<metadata>
Created by potrace 1.11, written by Peter Selinger 2001-2013
</metadata>
<g transform="translate(0.000000,1280.000000) scale(0.100000,-0.100000)"
fill="#000000" stroke="none">
<path d="M0 8292 l0 -1917 1889 0 c1673 0 1890 -2 1893 -15 2 -8 3 -854 3
-1880 -1 -1026 0 -1870 2 -1875 2 -7 607 -11 1916 -10 l1912 0 3 1917 2 1918
-1892 2 -1893 3 0 1888 0 1887 -1917 0 -1918 0 0 -1918z"/>
<path d="M7330 9310 c-162 -35 -293 -82 -337 -123 -23 -21 -31 -69 -15 -94 4
-6 43 -23 86 -37 44 -15 86 -32 94 -38 43 -36 47 -106 47 -823 0 -689 -1 -704
-51 -750 -14 -13 -38 -27 -53 -30 -71 -15 -94 -89 -45 -138 36 -36 107 -49
289 -51 314 -5 411 27 390 125 -7 30 -30 49 -88 70 -20 7 -46 22 -57 34 -18
19 -21 30 -34 118 -9 57 -10 422 -2 435 4 7 13 12 20 12 21 0 116 -109 291
-330 88 -112 195 -248 237 -302 117 -147 158 -166 338 -162 107 2 169 10 212
29 44 18 58 35 65 78 8 50 -24 78 -128 112 -81 27 -88 32 -179 124 -142 143
-463 545 -476 597 -8 32 15 62 135 176 108 103 148 127 262 159 94 26 117 41
124 83 9 44 -7 71 -53 95 -50 25 -112 33 -256 32 -177 -1 -254 -14 -294 -51
-50 -47 -37 -108 31 -143 49 -25 54 -39 29 -79 -34 -55 -227 -233 -306 -282
-25 -16 -30 -16 -44 -3 -13 14 -15 58 -15 304 0 158 4 371 8 473 4 102 8 210
9 240 3 70 -10 132 -31 148 -23 17 -102 14 -203 -8z"/>
<path d="M9039 9274 c-122 -36 -191 -166 -141 -263 71 -140 314 -145 415 -9
28 37 34 125 13 166 -48 94 -172 139 -287 106z"/>
<path d="M12645 8779 c-85 -58 -196 -100 -245 -92 -14 2 -57 10 -97 18 -39 8
-88 17 -107 20 -20 3 -53 8 -73 11 -102 15 -233 3 -343 -32 -280 -88 -437
-331 -397 -617 10 -71 67 -185 120 -238 l45 -47 -41 -30 c-98 -70 -159 -153
-171 -232 -12 -84 41 -175 128 -219 l47 -23 -38 -25 c-57 -38 -122 -103 -143
-143 -39 -75 -27 -172 30 -255 71 -102 224 -185 405 -219 80 -16 350 -16 420
-1 94 20 121 28 195 54 243 89 394 262 404 463 8 146 -70 261 -210 309 -61 21
-87 24 -219 24 -82 0 -190 -4 -240 -10 -126 -14 -341 -12 -390 4 -97 32 -129
88 -96 166 29 65 34 67 147 44 81 -17 122 -20 229 -16 147 6 217 22 325 75 97
48 194 143 239 233 65 133 73 303 20 427 -25 57 -24 59 12 78 41 21 102 81
122 120 29 57 26 109 -8 147 -31 32 -32 32 -70 6z m-557 -238 c43 -13 114 -71
140 -114 46 -75 66 -200 48 -297 -37 -193 -229 -301 -395 -223 -123 59 -186
237 -146 411 42 179 190 273 353 223z m264 -1305 c137 -20 170 -172 60 -278
-85 -83 -211 -122 -392 -122 -101 -1 -138 3 -196 21 -132 42 -197 111 -195
208 0 58 8 79 48 132 22 30 27 32 61 26 45 -7 285 -7 327 1 17 3 68 8 115 12
47 4 87 8 88 10 2 1 11 1 20 0 10 -2 38 -6 64 -10z"/>
<path d="M4728 8746 c-1 -2 -35 -7 -74 -10 -405 -37 -687 -373 -677 -806 2
-76 7 -113 27 -200 20 -88 99 -228 172 -306 170 -181 441 -263 694 -210 224
47 509 275 485 387 -9 40 -46 63 -87 55 -17 -3 -63 -30 -102 -60 -128 -97
-234 -138 -357 -137 -173 1 -329 100 -404 256 -50 105 -64 236 -28 262 13 10
120 13 457 14 493 0 503 1 523 59 15 44 9 184 -10 266 -57 239 -253 399 -516
420 -42 3 -81 7 -88 9 -6 2 -13 2 -15 1z m129 -232 c60 -29 117 -88 145 -151
33 -75 43 -152 24 -179 -14 -18 -31 -19 -326 -19 -351 0 -334 -4 -326 80 7 73
22 114 61 170 53 77 124 121 213 132 26 3 48 6 50 8 8 7 115 -20 159 -41z"/>
<path d="M6167 8744 c-1 -1 -31 -4 -67 -8 -299 -28 -501 -154 -503 -315 -1
-90 50 -147 132 -145 65 2 115 28 164 87 63 75 126 136 159 153 89 46 182 50
257 12 37 -19 52 -36 76 -82 27 -54 30 -68 33 -187 4 -104 2 -129 -9 -129 -8
0 -45 5 -84 11 -72 10 -281 13 -325 4 -13 -2 -42 -7 -65 -11 -22 -3 -71 -16
-108 -29 -225 -78 -339 -237 -333 -467 6 -232 141 -389 369 -431 165 -30 296
-3 454 94 95 57 97 57 158 -16 54 -64 115 -93 183 -89 153 10 293 94 295 179
1 45 -24 67 -96 84 -58 13 -83 38 -92 90 -3 21 -7 200 -8 397 -1 397 -9 493
-51 579 -45 90 -147 161 -281 195 -40 10 -251 29 -258 24z m153 -789 c110 -12
101 4 99 -167 -1 -171 -14 -230 -60 -282 -38 -44 -109 -68 -199 -68 -174 0
-285 93 -291 242 -3 80 16 135 63 187 49 52 87 70 183 87 70 12 100 13 205 1z"/>
<path d="M9170 8733 c-14 -2 -78 -20 -142 -39 -191 -56 -258 -94 -273 -155 -9
-36 21 -63 101 -89 74 -25 79 -30 95 -95 19 -79 21 -786 3 -847 -15 -49 -40
-73 -104 -98 -44 -18 -59 -37 -59 -75 0 -84 79 -109 354 -109 172 0 255 8 301
30 42 20 56 44 52 87 -3 29 -11 36 -73 67 -112 56 -110 51 -109 420 1 168 5
429 9 580 7 273 7 275 -15 303 -18 23 -28 27 -68 26 -26 -1 -58 -4 -72 -6z"/>
<path d="M9955 8720 c-178 -40 -344 -108 -361 -150 -25 -63 -7 -88 88 -119 81
-27 96 -51 106 -163 4 -46 7 -234 7 -418 0 -403 0 -402 -99 -452 -70 -35 -76
-41 -76 -86 0 -77 75 -102 314 -106 177 -3 294 7 341 30 35 16 57 56 51 89 -3
11 -5 24 -5 28 -1 5 -29 21 -64 37 -72 32 -91 51 -105 101 -11 40 -9 514 2
594 19 134 56 217 123 275 132 117 338 94 402 -45 47 -103 56 -190 55 -540 0
-320 -2 -325 -93 -372 -86 -44 -91 -50 -91 -93 0 -47 31 -75 93 -85 23 -4 51
-9 62 -12 42 -8 396 -3 441 7 84 19 113 44 114 96 0 36 -17 54 -84 86 -91 42
-90 37 -91 447 -2 431 -11 511 -73 625 -57 107 -190 207 -312 235 -65 15 -177
13 -244 -4 -77 -20 -128 -52 -212 -130 -38 -35 -75 -64 -81 -65 -9 0 -13 15
-14 43 0 83 -8 130 -22 144 -21 21 -83 22 -172 3z"/>
<path d="M8942 5515 c-159 -41 -299 -107 -303 -142 -1 -7 -2 -19 -3 -25 -1 -7
3 -25 11 -39 10 -21 28 -31 81 -48 76 -23 110 -52 122 -104 11 -50 12 -259 1
-276 -7 -11 -23 -8 -87 17 -105 39 -164 52 -254 56 -290 10 -528 -137 -654
-404 -52 -109 -77 -216 -83 -356 -17 -382 147 -657 450 -752 83 -25 255 -23
338 6 68 23 156 76 243 144 57 45 67 40 65 -32 -2 -80 1 -91 26 -116 21 -21
31 -24 77 -19 152 13 371 83 426 136 22 21 29 63 14 85 -10 15 -44 32 -76 38
-92 17 -110 34 -121 116 -18 147 -23 801 -9 1300 9 358 9 379 -14 410 -17 22
-27 25 -88 27 -47 2 -99 -5 -162 -22z m-263 -800 c72 -34 134 -85 156 -131 15
-32 18 -72 19 -293 1 -296 -5 -372 -34 -438 -27 -61 -62 -98 -125 -131 -44
-23 -62 -26 -150 -27 -84 0 -107 4 -145 22 -45 23 -150 118 -150 136 0 6 -7
18 -15 27 -20 22 -61 141 -74 210 -14 81 -12 256 5 334 37 178 153 308 289
323 22 3 41 6 43 7 9 9 136 -19 181 -39z"/>
</g>
</svg>
